{
  "source": "C:\\Users\\Peter\\Desktop\\stuff\\MIUN\\quantitative_research\\video_compression\\videos\\BVI-HD\\BVI-HD_CDVL_videos\\ORIG\\TreeGrassFamily_1920x1080_30fps.mp4",
  "output": "C:\\Users\\Peter\\Desktop\\stuff\\MIUN\\quantitative_research\\video_compression\\compressed_videos\\BVI-HD\\av1\\8\\TreeGrassFamily_1920x1080_30fps_av1.mkv",
  "codec": "av1",
  "ok": "Input #0, mov,mp4,m4a,3gp,3g2,mj2, from 'C:\\Users\\Peter\\Desktop\\stuff\\MIUN\\quantitative_research\\video_compression\\videos\\BVI-HD\\BVI-HD_CDVL_videos\\ORIG\\TreeGrassFamily_1920x1080_30fps.mp4':\n  Metadata:\n    major_brand     : isom\n    minor_version   : 512\n    compatible_brands: isomiso2avc1mp41\n    encoder         : Lavf54.28.101\n  Duration: 00:00:05.00, start: 0.000000, bitrate: 331787 kb/s\n  Stream #0:0[0x1](und): Video: h264 (High 4:4:4 Predictive) (avc1 / 0x31637661), yuv420p(progressive), 1920x1080, 331784 kb/s, 30 fps, 30 tbr, 30 tbn (default)\n    Metadata:\n      handler_name    : VideoHandler\n      vendor_id       : [0][0][0][0]\n[out#0/matroska @ 000001e947bc8f00] Codec AVOption b:a (set bitrate (in bits/s)) has not been used for any stream. The most likely reason is either wrong type (e.g. a video option with no video streams) or that it is a private option of some decoder which was not actually used for any stream.\nStream mapping:\n  Stream #0:0 -> #0:0 (h264 (native) -> av1 (libsvtav1))\nPress [q] to stop, [?] for help\nSvt[info]: -------------------------------------------\nSvt[info]: SVT [version]:\tSVT-AV1 Encoder Lib v3.1.0-19-g6ecfe8ec\nSvt[info]: SVT [build]  :\tGCC 15.2.0\t 64 bit\nSvt[info]: LIB Build date: Aug 17 2025 11:37:13\nSvt[info]: -------------------------------------------\nSvt[info]: Level of Parallelism: 5\nSvt[info]: Number of PPCS 93\nSvt[info]: [asm level on system : up to avx2]\nSvt[info]: [asm level selected : up to avx2]\nSvt[info]: -------------------------------------------\nSvt[info]: SVT [config]: main profile\ttier (auto)\tlevel (auto)\nSvt[info]: SVT [config]: width / height / fps numerator / fps denominator \t\t: 1920 / 1080 / 30 / 1\nSvt[info]: SVT [config]: bit-depth / color format \t\t\t\t\t: 8 / YUV420\nSvt[info]: SVT [config]: preset / tune / pred struct \t\t\t\t\t: 4 / PSNR / random access\nSvt[info]: SVT [config]: gop size / mini-gop size / key-frame type \t\t\t: 161 / 16 / key frame\nSvt[info]: SVT [config]: BRC mode / target bitrate (kbps)\t\t\t\t: VBR / 8000 \nSvt[info]: SVT [config]: AQ mode / Variance Boost \t\t\t\t\t: 2 / 0\nSvt[info]: SVT [config]: sharpness / luminance-based QP bias \t\t\t\t: 0 / 0\nSvt[info]: SVT [config]: QP scale compress strength \t\t\t\t\t: 0\nSvt[info]: -------------------------------------------\nOutput #0, matroska, to 'C:\\Users\\Peter\\Desktop\\stuff\\MIUN\\quantitative_research\\video_compression\\compressed_videos\\BVI-HD\\av1\\8\\TreeGrassFamily_1920x1080_30fps_av1.mkv':\n  Metadata:\n    major_brand     : isom\n    minor_version   : 512\n    compatible_brands: isomiso2avc1mp41\n    encoder         : Lavf62.3.100\n  Stream #0:0(und): Video: av1 (AV01 / 0x31305641), yuv420p(tv, progressive), 1920x1080, q=2-31, 8000 kb/s, 30 fps, 1k tbn (default)\n    Metadata:\n      encoder         : Lavc62.11.100 libsvtav1\n      handler_name    : VideoHandler\n      vendor_id       : [0][0][0][0]\n    Side data:\n      cpb: bitrate max/min/avg: 0/0/8000000 buffer size: 8000000 vbv_delay: N/A\nframe=    0 fps=0.0 q=0.0 size=       0KiB time=N/A bitrate=N/A speed=N/A elapsed=0:00:01.69    \nframe=    0 fps=0.0 q=0.0 size=       0KiB time=N/A bitrate=N/A speed=N/A elapsed=0:00:02.31    \nframe=    0 fps=0.0 q=0.0 size=       0KiB time=N/A bitrate=N/A speed=N/A elapsed=0:00:03.01    \nframe=    0 fps=0.0 q=0.0 size=       0KiB time=N/A bitrate=N/A speed=N/A elapsed=0:00:03.86    \nframe=    0 fps=0.0 q=0.0 size=       0KiB time=N/A bitrate=N/A speed=N/A elapsed=0:00:04.72    \nframe=    1 fps=0.2 q=13.0 size=       1KiB time=00:00:00.00 bitrate=N/A speed=   0x elapsed=0:00:05.26    \nframe=    1 fps=0.2 q=13.0 size=       1KiB time=00:00:00.00 bitrate=N/A speed=   0x elapsed=0:00:05.84    \nframe=    1 fps=0.2 q=13.0 size=       1KiB time=00:00:00.00 bitrate=N/A speed=   0x elapsed=0:00:06.43    \nframe=    5 fps=0.7 q=31.0 size=       1KiB time=00:00:00.13 bitrate=  42.8kbits/s speed=0.0191x elapsed=0:00:06.96    \nframe=    7 fps=0.9 q=31.0 size=       1KiB time=00:00:00.20 bitrate=  28.5kbits/s speed=0.0266x elapsed=0:00:07.51    \nframe=    9 fps=1.1 q=29.0 size=       1KiB time=00:00:00.26 bitrate=  21.4kbits/s speed=0.0329x elapsed=0:00:08.11    \nframe=   11 fps=1.3 q=32.0 size=       1KiB time=00:00:00.33 bitrate=  17.1kbits/s speed=0.0385x elapsed=0:00:08.66    \nframe=   14 fps=1.5 q=34.0 size=       1KiB time=00:00:00.43 bitrate=  13.2kbits/s speed=0.0472x elapsed=0:00:09.17    \nframe=   18 fps=1.9 q=34.0 size=       1KiB time=00:00:00.56 bitrate=  10.1kbits/s speed=0.0583x elapsed=0:00:09.72    \nframe=   22 fps=2.1 q=34.0 size=       1KiB time=00:00:00.66 bitrate=   8.6kbits/s speed=0.0645x elapsed=0:00:10.33    \nframe=   23 fps=2.1 q=33.0 size=       1KiB time=00:00:00.73 bitrate=   7.8kbits/s speed=0.0672x elapsed=0:00:10.92    \nframe=   27 fps=2.3 q=32.0 size=       1KiB time=00:00:00.86 bitrate=   6.6kbits/s speed=0.0752x elapsed=0:00:11.52    \nframe=   32 fps=2.6 q=38.0 size=       1KiB time=00:00:01.03 bitrate=   5.5kbits/s speed=0.085x elapsed=0:00:12.16    \nframe=   35 fps=2.8 q=35.0 size=       1KiB time=00:00:01.13 bitrate=   5.0kbits/s speed=0.0892x elapsed=0:00:12.70    \nframe=   39 fps=2.9 q=35.0 size=       1KiB time=00:00:01.23 bitrate=   4.6kbits/s speed=0.0928x elapsed=0:00:13.28    \nframe=   43 fps=3.1 q=35.0 size=       1KiB time=00:00:01.36 bitrate=   4.2kbits/s speed=0.0974x elapsed=0:00:14.03    \nframe=   48 fps=3.3 q=41.0 size=       1KiB time=00:00:01.56 bitrate=   3.6kbits/s speed=0.107x elapsed=0:00:14.64    \nframe=   51 fps=3.4 q=38.0 size=       1KiB time=00:00:01.66 bitrate=   3.4kbits/s speed=0.11x elapsed=0:00:15.17    \nframe=   55 fps=3.5 q=38.0 size=       1KiB time=00:00:01.80 bitrate=   3.2kbits/s speed=0.114x elapsed=0:00:15.84    \nframe=   57 fps=3.5 q=32.0 size=       1KiB time=00:00:01.86 bitrate=   3.1kbits/s speed=0.113x elapsed=0:00:16.47    \nframe=   61 fps=3.6 q=36.0 size=       1KiB time=00:00:02.00 bitrate=   2.9kbits/s speed=0.117x elapsed=0:00:17.13    \nframe=   65 fps=3.7 q=27.0 size=       1KiB time=00:00:02.13 bitrate=   2.7kbits/s speed=0.121x elapsed=0:00:17.65    \nframe=   69 fps=3.8 q=39.0 size=       1KiB time=00:00:02.26 bitrate=   2.5kbits/s speed=0.125x elapsed=0:00:18.18    \nframe=   73 fps=3.9 q=36.0 size=       1KiB time=00:00:02.40 bitrate=   2.4kbits/s speed=0.128x elapsed=0:00:18.71    \nframe=   73 fps=3.8 q=36.0 size=       1KiB time=00:00:02.40 bitrate=   2.4kbits/s speed=0.125x elapsed=0:00:19.25    \nframe=   77 fps=3.9 q=36.0 size=       1KiB time=00:00:02.53 bitrate=   2.3kbits/s speed=0.128x elapsed=0:00:19.81    \nframe=   81 fps=4.0 q=31.0 size=       1KiB time=00:00:02.66 bitrate=   2.1kbits/s speed=0.131x elapsed=0:00:20.35    \nframe=   85 fps=4.1 q=39.0 size=       1KiB time=00:00:02.80 bitrate=   2.0kbits/s speed=0.134x elapsed=0:00:20.91    \nframe=   89 fps=4.1 q=36.0 size=       1KiB time=00:00:02.93 bitrate=   1.9kbits/s speed=0.136x elapsed=0:00:21.49    \nframe=   93 fps=4.2 q=36.0 size=       1KiB time=00:00:03.06 bitrate=   1.9kbits/s speed=0.139x elapsed=0:00:22.13    \nframe=   97 fps=4.3 q=31.0 size=       1KiB time=00:00:03.20 bitrate=   1.8kbits/s speed=0.141x elapsed=0:00:22.67    \nframe=  101 fps=4.3 q=39.0 size=       1KiB time=00:00:03.33 bitrate=   1.7kbits/s speed=0.144x elapsed=0:00:23.22    \nframe=  105 fps=4.4 q=36.0 size=       1KiB time=00:00:03.46 bitrate=   1.6kbits/s speed=0.146x elapsed=0:00:23.79    \nframe=  109 fps=4.5 q=37.0 size=       1KiB time=00:00:03.60 bitrate=   1.6kbits/s speed=0.148x elapsed=0:00:24.37    \nframe=  113 fps=4.5 q=31.0 size=       1KiB time=00:00:03.73 bitrate=   1.5kbits/s speed=0.15x elapsed=0:00:24.90    \nframe=  117 fps=4.6 q=40.0 size=       1KiB time=00:00:03.86 bitrate=   1.5kbits/s speed=0.151x elapsed=0:00:25.54    \nframe=  121 fps=4.6 q=37.0 size=       1KiB time=00:00:04.00 bitrate=   1.4kbits/s speed=0.153x elapsed=0:00:26.09    \nframe=  125 fps=4.7 q=39.0 size=       1KiB time=00:00:04.13 bitrate=   1.4kbits/s speed=0.155x elapsed=0:00:26.71    \nframe=  129 fps=4.7 q=32.0 size=    5120KiB time=00:00:04.26 bitrate=9830.4kbits/s speed=0.156x elapsed=0:00:27.34    \nframe=  135 fps=4.8 q=42.0 size=    5120KiB time=00:00:04.40 bitrate=9532.5kbits/s speed=0.157x elapsed=0:00:27.95    \nframe=  137 fps=4.8 q=39.0 size=    5120KiB time=00:00:04.53 bitrate=9252.1kbits/s speed=0.159x elapsed=0:00:28.54    \nframe=  141 fps=4.8 q=42.0 size=    5120KiB time=00:00:04.66 bitrate=8987.8kbits/s speed=0.16x elapsed=0:00:29.11    \n[out#0/matroska @ 000001e947bc8f00] video:5740KiB audio:0KiB subtitle:0KiB other streams:0KiB global headers:0KiB muxing overhead: 0.025606%\nframe=  150 fps=5.1 q=42.0 Lsize=    5741KiB time=00:00:04.96 bitrate=9469.5kbits/s speed=0.168x elapsed=0:00:29.54    \n",
  "seconds": 30.403800010681152,
  "probe_out": {}
}